Results
version=1
nRows=4
nColumns=205
inDegrees=yes
endheader
time	/jointset/ground_pelvis/pelvis_tilt/value	/jointset/ground_pelvis/pelvis_tilt/speed	/jointset/ground_pelvis/pelvis_list/value	/jointset/ground_pelvis/pelvis_list/speed	/jointset/ground_pelvis/pelvis_rotation/value	/jointset/ground_pelvis/pelvis_rotation/speed	/jointset/ground_pelvis/pelvis_tx/value	/jointset/ground_pelvis/pelvis_tx/speed	/jointset/ground_pelvis/pelvis_ty/value	/jointset/ground_pelvis/pelvis_ty/speed	/jointset/ground_pelvis/pelvis_tz/value	/jointset/ground_pelvis/pelvis_tz/speed	/jointset/hip_r/hip_flexion_r/value	/jointset/hip_r/hip_flexion_r/speed	/jointset/hip_r/hip_adduction_r/value	/jointset/hip_r/hip_adduction_r/speed	/jointset/hip_r/hip_rotation_r/value	/jointset/hip_r/hip_rotation_r/speed	/jointset/walker_knee_r/knee_angle_r/value	/jointset/walker_knee_r/knee_angle_r/speed	/jointset/patellofemoral_r/knee_angle_r_beta/value	/jointset/patellofemoral_r/knee_angle_r_beta/speed	/jointset/ankle_r/ankle_angle_r/value	/jointset/ankle_r/ankle_angle_r/speed	/jointset/subtalar_r/subtalar_angle_r/value	/jointset/subtalar_r/subtalar_angle_r/speed	/jointset/mtp_r/mtp_angle_r/value	/jointset/mtp_r/mtp_angle_r/speed	/jointset/hip_l/hip_flexion_l/value	/jointset/hip_l/hip_flexion_l/speed	/jointset/hip_l/hip_adduction_l/value	/jointset/hip_l/hip_adduction_l/speed	/jointset/hip_l/hip_rotation_l/value	/jointset/hip_l/hip_rotation_l/speed	/jointset/walker_knee_l/knee_angle_l/value	/jointset/walker_knee_l/knee_angle_l/speed	/jointset/patellofemoral_l/knee_angle_l_beta/value	/jointset/patellofemoral_l/knee_angle_l_beta/speed	/jointset/ankle_l/ankle_angle_l/value	/jointset/ankle_l/ankle_angle_l/speed	/jointset/subtalar_l/subtalar_angle_l/value	/jointset/subtalar_l/subtalar_angle_l/speed	/jointset/mtp_l/mtp_angle_l/value	/jointset/mtp_l/mtp_angle_l/speed	/jointset/back/lumbar_extension/value	/jointset/back/lumbar_extension/speed	/jointset/back/lumbar_bending/value	/jointset/back/lumbar_bending/speed	/jointset/back/lumbar_rotation/value	/jointset/back/lumbar_rotation/speed	/jointset/acromial_r/arm_flex_r/value	/jointset/acromial_r/arm_flex_r/speed	/jointset/acromial_r/arm_add_r/value	/jointset/acromial_r/arm_add_r/speed	/jointset/acromial_r/arm_rot_r/value	/jointset/acromial_r/arm_rot_r/speed	/jointset/elbow_r/elbow_flex_r/value	/jointset/elbow_r/elbow_flex_r/speed	/jointset/radioulnar_r/pro_sup_r/value	/jointset/radioulnar_r/pro_sup_r/speed	/jointset/radius_hand_r/wrist_flex_r/value	/jointset/radius_hand_r/wrist_flex_r/speed	/jointset/radius_hand_r/wrist_dev_r/value	/jointset/radius_hand_r/wrist_dev_r/speed	/jointset/acromial_l/arm_flex_l/value	/jointset/acromial_l/arm_flex_l/speed	/jointset/acromial_l/arm_add_l/value	/jointset/acromial_l/arm_add_l/speed	/jointset/acromial_l/arm_rot_l/value	/jointset/acromial_l/arm_rot_l/speed	/jointset/elbow_l/elbow_flex_l/value	/jointset/elbow_l/elbow_flex_l/speed	/jointset/radioulnar_l/pro_sup_l/value	/jointset/radioulnar_l/pro_sup_l/speed	/jointset/radius_hand_l/wrist_flex_l/value	/jointset/radius_hand_l/wrist_flex_l/speed	/jointset/radius_hand_l/wrist_dev_l/value	/jointset/radius_hand_l/wrist_dev_l/speed	/forceset/addbrev_r/activation	/forceset/addlong_r/activation	/forceset/addlong_r/fiber_length	/forceset/addmagDist_r/activation	/forceset/addmagIsch_r/activation	/forceset/addmagIsch_r/fiber_length	/forceset/addmagMid_r/activation	/forceset/addmagProx_r/activation	/forceset/bflh_r/activation	/forceset/bflh_r/fiber_length	/forceset/bfsh_r/activation	/forceset/edl_r/activation	/forceset/edl_r/fiber_length	/forceset/ehl_r/activation	/forceset/ehl_r/fiber_length	/forceset/fdl_r/activation	/forceset/fdl_r/fiber_length	/forceset/fhl_r/activation	/forceset/fhl_r/fiber_length	/forceset/gaslat_r/activation	/forceset/gaslat_r/fiber_length	/forceset/gasmed_r/activation	/forceset/gasmed_r/fiber_length	/forceset/glmax1_r/activation	/forceset/glmax2_r/activation	/forceset/glmax3_r/activation	/forceset/glmed1_r/activation	/forceset/glmed2_r/activation	/forceset/glmed3_r/activation	/forceset/glmin1_r/activation	/forceset/glmin2_r/activation	/forceset/glmin3_r/activation	/forceset/glmin3_r/fiber_length	/forceset/grac_r/activation	/forceset/iliacus_r/activation	/forceset/perbrev_r/activation	/forceset/perbrev_r/fiber_length	/forceset/perlong_r/activation	/forceset/perlong_r/fiber_length	/forceset/piri_r/activation	/forceset/piri_r/fiber_length	/forceset/psoas_r/activation	/forceset/recfem_r/activation	/forceset/recfem_r/fiber_length	/forceset/sart_r/activation	/forceset/semimem_r/activation	/forceset/semimem_r/fiber_length	/forceset/semiten_r/activation	/forceset/semiten_r/fiber_length	/forceset/soleus_r/activation	/forceset/soleus_r/fiber_length	/forceset/tfl_r/activation	/forceset/tfl_r/fiber_length	/forceset/tibant_r/activation	/forceset/tibant_r/fiber_length	/forceset/tibpost_r/activation	/forceset/tibpost_r/fiber_length	/forceset/vasint_r/activation	/forceset/vasint_r/fiber_length	/forceset/vaslat_r/activation	/forceset/vaslat_r/fiber_length	/forceset/vasmed_r/activation	/forceset/vasmed_r/fiber_length	/forceset/addbrev_l/activation	/forceset/addlong_l/activation	/forceset/addlong_l/fiber_length	/forceset/addmagDist_l/activation	/forceset/addmagIsch_l/activation	/forceset/addmagIsch_l/fiber_length	/forceset/addmagMid_l/activation	/forceset/addmagProx_l/activation	/forceset/bflh_l/activation	/forceset/bflh_l/fiber_length	/forceset/bfsh_l/activation	/forceset/edl_l/activation	/forceset/edl_l/fiber_length	/forceset/ehl_l/activation	/forceset/ehl_l/fiber_length	/forceset/fdl_l/activation	/forceset/fdl_l/fiber_length	/forceset/fhl_l/activation	/forceset/fhl_l/fiber_length	/forceset/gaslat_l/activation	/forceset/gaslat_l/fiber_length	/forceset/gasmed_l/activation	/forceset/gasmed_l/fiber_length	/forceset/glmax1_l/activation	/forceset/glmax2_l/activation	/forceset/glmax3_l/activation	/forceset/glmed1_l/activation	/forceset/glmed2_l/activation	/forceset/glmed3_l/activation	/forceset/glmin1_l/activation	/forceset/glmin2_l/activation	/forceset/glmin3_l/activation	/forceset/glmin3_l/fiber_length	/forceset/grac_l/activation	/forceset/iliacus_l/activation	/forceset/perbrev_l/activation	/forceset/perbrev_l/fiber_length	/forceset/perlong_l/activation	/forceset/perlong_l/fiber_length	/forceset/piri_l/activation	/forceset/piri_l/fiber_length	/forceset/psoas_l/activation	/forceset/recfem_l/activation	/forceset/recfem_l/fiber_length	/forceset/sart_l/activation	/forceset/semimem_l/activation	/forceset/semimem_l/fiber_length	/forceset/semiten_l/activation	/forceset/semiten_l/fiber_length	/forceset/soleus_l/activation	/forceset/soleus_l/fiber_length	/forceset/tfl_l/activation	/forceset/tfl_l/fiber_length	/forceset/tibant_l/activation	/forceset/tibant_l/fiber_length	/forceset/tibpost_l/activation	/forceset/tibpost_l/fiber_length	/forceset/vasint_l/activation	/forceset/vasint_l/fiber_length	/forceset/vaslat_l/activation	/forceset/vaslat_l/fiber_length	/forceset/vasmed_l/activation	/forceset/vasmed_l/fiber_length
      0.12146945	     16.74545099	     70.85787323	      0.16507613	     51.23319156	      9.31491035	     64.71616963	      0.00200624	      0.00845244	      0.89718770	     -1.05781890	     -0.01406362	     -0.10246202	      2.67552954	   -205.93692406	     -1.84753901	    -27.85056173	    -17.51948380	   -164.26029987	     14.37167734	   -260.96736069	      0.25083309	     -4.55473968	    -23.96589264	    -88.33445142	     12.26702442	    187.74587006	    -70.22889236	   -977.60937376	    -19.21121297	    -71.67651757	     -2.04535459	     37.01157341	      0.90853484	    -44.56464275	     -4.90780542	     -5.53386484	     -0.08565736	     -0.09658416	    -22.45189738	   -107.46711837	     13.77895785	     80.81156116	    -88.05437073	  -1091.41900968	    -18.48028467	    -80.10600135	      2.53765119	    -25.04754092	     -8.93000885	    -75.42894872	      2.90873051	      6.38926230	      0.47556893	     13.26629255	      0.06241680	      1.45699100	     -1.48958932	     -3.90357295	      0.08012445	     -1.43856665	      0.74746284	      2.23982930	      0.31177380	     -9.04890262	      2.89462921	      5.65070978	     -0.30504605	    -12.89980669	     -0.00368434	     -0.71605174	     -1.54229745	     -5.07279489	      0.18432247	      1.85939644	      0.87654633	      5.98213422	      0.99432473	     13.68412525	     -0.00563919	     -0.00563919	      0.11376889	     -0.00563919	     -0.00563919	      0.12985084	     -0.00563919	     -0.00563919	     -0.00563919	      0.08405112	     -0.00563919	     -0.00563919	      0.07712790	     -0.00563919	      0.08206464	     -0.00563919	      0.04301064	     -0.00563919	      0.04808567	     -0.00563919	      0.05024099	     -0.00563919	      0.03984467	     -0.00563919	     -0.00563919	     -0.00563919	     -0.00563919	     -0.00563919	     -0.00563919	     -0.00563919	     -0.00563919	     -0.00563919	      0.03465472	     -0.00563919	     -0.00563919	     -0.00563919	      0.05020072	     -0.00563919	      0.05451617	     -0.00563919	      0.02115594	     -0.00563919	     -0.00563919	      0.07410136	     -0.00563919	     -0.00563919	      0.06003151	     -0.00563919	      0.20447976	     -0.00563919	      0.03205513	     -0.00563919	      0.09932104	     -0.00563919	      0.07917212	     -0.00563919	      0.03115176	     -0.00563919	      0.09123110	     -0.00563919	      0.08932332	     -0.00563919	      0.09036633	     -0.00563919	     -0.00563919	      0.12971371	     -0.00563919	     -0.00563919	      0.11692543	     -0.00563919	     -0.00563919	     -0.00563919	      0.07975341	     -0.00563919	     -0.00563919	      0.07513980	     -0.00563919	      0.07902170	     -0.00563919	      0.04325991	     -0.00563919	      0.04909564	     -0.00563919	      0.05550826	     -0.00563919	      0.04179460	     -0.00563919	     -0.00563919	     -0.00563919	     -0.00563919	     -0.00563919	     -0.00563919	     -0.00563919	     -0.00563919	     -0.00563919	      0.03314789	     -0.00563919	     -0.00563919	     -0.00563919	      0.05101072	     -0.00563919	      0.05534678	     -0.00563919	      0.02038524	     -0.00563919	     -0.00563919	      0.06936383	     -0.00563919	     -0.00563919	      0.05713971	     -0.00563919	      0.20254106	     -0.00563919	      0.03306406	     -0.00563919	      0.09988751	     -0.00563919	      0.07793225	     -0.00563919	      0.03088845	     -0.00563919	      0.07579191	     -0.00563919	      0.07543724	     -0.00563919	      0.07711182
      0.12202626	     16.78451566	     69.45946214	      0.19365853	     51.42940617	      9.35073409	     63.95983067	      0.00201096	      0.00849563	      0.89659659	     -1.06537365	     -0.01412037	     -0.10138234	      2.56147339	   -203.74373105	     -1.86307492	    -27.95051029	    -17.61074894	   -163.55583782	     14.22671762	   -259.72018063	      0.24830306	     -4.53297229	    -24.01535953	    -89.37738863	     12.37105431	    185.90700432	    -70.77480813	   -983.29907079	    -19.25067924	    -70.08309244	     -2.02456502	     37.66018201	      0.88340384	    -45.70550756	     -4.91078791	     -5.17942121	     -0.08570942	     -0.09039795	    -22.51162612	   -107.07210480	     13.82380183	     80.27113848	    -88.66281525	  -1094.06052745	    -18.52449132	    -78.68055806	      2.52355085	    -25.59718767	     -8.97185514	    -74.87854103	      2.91221872	      6.14024287	      0.48295437	     13.26105804	      0.06322617	      1.45013650	     -1.49171437	     -3.72931673	      0.07932001	     -1.45083697	      0.74867118	      2.10025723	      0.30671253	     -9.13033423	      2.89770630	      5.40209211	     -0.31223259	    -12.91310030	     -0.00408512	     -0.72347784	     -1.54507391	     -4.89986038	      0.18535481	      1.84860287	      0.87983881	      5.84380058	      1.00192151	     13.60225946	     -0.00571088	     -0.00571088	      0.11389900	     -0.00571088	     -0.00571088	      0.12978446	     -0.00571088	     -0.00571088	     -0.00571088	      0.08402971	     -0.00571088	     -0.00571088	      0.07711688	     -0.00571088	      0.08200963	     -0.00571088	      0.04298563	     -0.00571088	      0.04807643	     -0.00571088	      0.05026213	     -0.00571088	      0.03983230	     -0.00571088	     -0.00571088	     -0.00571088	     -0.00571088	     -0.00571088	     -0.00571088	     -0.00571088	     -0.00571088	     -0.00571088	      0.03458911	     -0.00571088	     -0.00571088	     -0.00571088	      0.05023021	     -0.00571088	      0.05454206	     -0.00571088	      0.02111278	     -0.00571088	     -0.00571088	      0.07404856	     -0.00571088	     -0.00571088	      0.06004000	     -0.00571088	      0.20449822	     -0.00571088	      0.03201588	     -0.00571088	      0.09931932	     -0.00571088	      0.07917435	     -0.00571088	      0.03110447	     -0.00571088	      0.09111927	     -0.00571088	      0.08921262	     -0.00571088	      0.09026667	     -0.00571088	     -0.00571088	      0.12972764	     -0.00571088	     -0.00571088	      0.11690075	     -0.00571088	     -0.00571088	     -0.00571088	      0.07972215	     -0.00571088	     -0.00571088	      0.07513590	     -0.00571088	      0.07898711	     -0.00571088	      0.04324422	     -0.00571088	      0.04909418	     -0.00571088	      0.05546620	     -0.00571088	      0.04175626	     -0.00571088	     -0.00571088	     -0.00571088	     -0.00571088	     -0.00571088	     -0.00571088	     -0.00571088	     -0.00571088	     -0.00571088	      0.03314092	     -0.00571088	     -0.00571088	     -0.00571088	      0.05101733	     -0.00571088	      0.05535122	     -0.00571088	      0.02037239	     -0.00571088	     -0.00571088	      0.06938090	     -0.00571088	     -0.00571088	      0.05711608	     -0.00571088	      0.20251435	     -0.00571088	      0.03302666	     -0.00571088	      0.09990713	     -0.00571088	      0.07795507	     -0.00571088	      0.03085968	     -0.00571088	      0.07578914	     -0.00571088	      0.07543497	     -0.00571088	      0.07710961
      0.12258306	     16.82280440	     68.07382310	      0.22234742	     51.61867695	      9.38613825	     63.21118450	      0.00201570	      0.00853872	      0.89600129	     -1.07290469	     -0.01417652	     -0.10031305	      2.44863428	   -201.57104906	     -1.87866508	    -28.04895339	    -17.70162455	   -162.86675486	     14.08244567	   -258.49870950	      0.24578504	     -4.51165359	    -24.06545330	    -90.57742943	     12.47404609	    184.02979506	    -71.32392043	   -989.08450187	    -19.28926113	    -68.50350048	     -2.00341713	     38.30078861	      0.85763766	    -46.84353111	     -4.91357388	     -4.82816281	     -0.08575804	     -0.08426734	    -22.57113337	   -106.67363249	     13.86835303	     79.75709986	    -89.27271682	  -1096.65382846	    -18.56790700	    -77.26865505	      2.50914708	    -26.13946234	     -9.01339539	    -74.33248847	      2.91556898	      5.89431689	      0.49033645	     13.25482350	      0.06403168	      1.44317953	     -1.49374261	     -3.55631874	      0.07850884	     -1.46280840	      0.74980180	      1.96100342	      0.30160641	     -9.21033348	      2.90064568	      5.15660427	     -0.31942605	    -12.92523376	     -0.00449002	     -0.73089857	     -1.54775425	     -4.72804781	      0.18638111	      1.83782429	      0.88305409	      5.70541952	      1.00947230	     13.51975526	     -0.00578257	     -0.00578257	      0.11399336	     -0.00578257	     -0.00578257	      0.12971915	     -0.00578257	     -0.00578257	     -0.00578257	      0.08400911	     -0.00578257	     -0.00578257	      0.07710574	     -0.00578257	      0.08195477	     -0.00578257	      0.04296065	     -0.00578257	      0.04806731	     -0.00578257	      0.05028284	     -0.00578257	      0.03981990	     -0.00578257	     -0.00578257	     -0.00578257	     -0.00578257	     -0.00578257	     -0.00578257	     -0.00578257	     -0.00578257	     -0.00578257	      0.03452354	     -0.00578257	     -0.00578257	     -0.00578257	      0.05025922	     -0.00578257	      0.05456754	     -0.00578257	      0.02106966	     -0.00578257	     -0.00578257	      0.07399543	     -0.00578257	     -0.00578257	      0.06004904	     -0.00578257	      0.20451728	     -0.00578257	      0.03197904	     -0.00578257	      0.09931689	     -0.00578257	      0.07917686	     -0.00578257	      0.03105748	     -0.00578257	      0.09100792	     -0.00578257	      0.08910250	     -0.00578257	      0.09016747	     -0.00578257	     -0.00578257	      0.12974065	     -0.00578257	     -0.00578257	      0.11687617	     -0.00578257	     -0.00578257	     -0.00578257	      0.07969111	     -0.00578257	     -0.00578257	      0.07513266	     -0.00578257	      0.07895306	     -0.00578257	      0.04322829	     -0.00578257	      0.04909252	     -0.00578257	      0.05542427	     -0.00578257	      0.04171803	     -0.00578257	     -0.00578257	     -0.00578257	     -0.00578257	     -0.00578257	     -0.00578257	     -0.00578257	     -0.00578257	     -0.00578257	      0.03313400	     -0.00578257	     -0.00578257	     -0.00578257	      0.05102384	     -0.00578257	      0.05535555	     -0.00578257	      0.02035935	     -0.00578257	     -0.00578257	      0.06939784	     -0.00578257	     -0.00578257	      0.05709268	     -0.00578257	      0.20248779	     -0.00578257	      0.03298941	     -0.00578257	      0.09992682	     -0.00578257	      0.07797780	     -0.00578257	      0.03083107	     -0.00578257	      0.07578653	     -0.00578257	      0.07543283	     -0.00578257	      0.07710753
      0.12313987	     16.86032311	     66.69034198	      0.25113835	     51.79347466	      9.42112641	     62.46352124	      0.00202047	      0.00858578	      0.89540180	     -1.08043047	     -0.01423208	     -0.09924206	      2.33700300	   -199.39934451	     -1.89430807	    -28.13748635	    -17.79211670	   -162.17206295	     13.93884987	   -257.28727816	      0.24327882	     -4.49051013	    -24.11624166	    -91.85183117	     12.57598197	    182.11129098	    -71.87626324	   -994.88185283	    -19.32696500	    -66.92559945	     -1.98191565	     38.92862309	      0.83123721	    -47.98614330	     -4.91616502	     -4.47938234	     -0.08580327	     -0.07817997	    -22.63041659	   -106.26541238	     13.91262647	     79.27557166	    -89.88404796	  -1099.19404475	    -18.61053782	    -75.85744994	      2.49444420	    -26.67010294	     -9.05463119	    -73.78237920	      2.91878276	      5.64931722	      0.49771445	     13.24588871	      0.06483324	      1.43591818	     -1.49567460	     -3.38313771	      0.07769110	     -1.47437047	      0.75085479	      1.82106082	      0.29645628	     -9.28818419	      2.90344884	      4.91215632	     -0.32662564	    -12.93465188	     -0.00489903	     -0.73824496	     -1.55033892	     -4.55572844	      0.18740135	      1.82674803	      0.88619202	      5.56544705	      1.01697655	     13.43436180	     -0.00585426	     -0.00585426	      0.11412111	     -0.00585426	     -0.00585426	      0.12965490	     -0.00585426	     -0.00585426	     -0.00585426	      0.08398932	     -0.00585426	     -0.00585426	      0.07709455	     -0.00585426	      0.08190013	     -0.00585426	      0.04293568	     -0.00585426	      0.04805830	     -0.00585426	      0.05030116	     -0.00585426	      0.03980737	     -0.00585426	     -0.00585426	     -0.00585426	     -0.00585426	     -0.00585426	     -0.00585426	     -0.00585426	     -0.00585426	     -0.00585426	      0.03445802	     -0.00585426	     -0.00585426	     -0.00585426	      0.05028773	     -0.00585426	      0.05459258	     -0.00585426	      0.02102657	     -0.00585426	     -0.00585426	      0.07394197	     -0.00585426	     -0.00585426	      0.06005864	     -0.00585426	      0.20453694	     -0.00585426	      0.03194401	     -0.00585426	      0.09931378	     -0.00585426	      0.07917971	     -0.00585426	      0.03101077	     -0.00585426	      0.09089704	     -0.00585426	      0.08899294	     -0.00585426	      0.09006871	     -0.00585426	     -0.00585426	      0.12975275	     -0.00585426	     -0.00585426	      0.11685170	     -0.00585426	     -0.00585426	     -0.00585426	      0.07966028	     -0.00585426	     -0.00585426	      0.07513010	     -0.00585426	      0.07891954	     -0.00585426	      0.04321212	     -0.00585426	      0.04909065	     -0.00585426	      0.05538247	     -0.00585426	      0.04167991	     -0.00585426	     -0.00585426	     -0.00585426	     -0.00585426	     -0.00585426	     -0.00585426	     -0.00585426	     -0.00585426	     -0.00585426	      0.03312714	     -0.00585426	     -0.00585426	     -0.00585426	      0.05103026	     -0.00585426	      0.05535979	     -0.00585426	      0.02034612	     -0.00585426	     -0.00585426	      0.06941466	     -0.00585426	     -0.00585426	      0.05706953	     -0.00585426	      0.20246139	     -0.00585426	      0.03295231	     -0.00585426	      0.09994659	     -0.00585426	      0.07800043	     -0.00585426	      0.03080263	     -0.00585426	      0.07578408	     -0.00585426	      0.07543081	     -0.00585426	      0.07710559
